<svg width="125" height="40" viewBox="0 0 125 40" fill="none" xmlns="http://www.w3.org/2000/svg">
<path d="M13.25 3.9C16.95 3.9 20.1833 4.63333 22.95 6.1C25.7167 7.56667 27.85 9.63333 29.35 12.3C30.8833 14.9333 31.65 17.9833 31.65 21.45C31.65 24.8833 30.8833 27.9333 29.35 30.6C27.85 33.2667 25.7 35.3333 22.9 36.8C20.1333 38.2667 16.9167 39 13.25 39H0.1V3.9H13.25ZM12.7 31.6C15.9333 31.6 18.45 30.7167 20.25 28.95C22.05 27.1833 22.95 24.6833 22.95 21.45C22.95 18.2167 22.05 15.7 20.25 13.9C18.45 12.1 15.9333 11.2 12.7 11.2H8.65V31.6H12.7Z" fill="#263435"/>
<path d="M42.7781 15.45C43.6115 14.05 44.7115 12.9667 46.0781 12.2C47.4781 11.4 49.1281 11 51.0281 11V16.9H49.5781C47.3448 16.9 45.6448 17.4667 44.4781 18.6C43.3448 19.7333 42.7781 21.7 42.7781 24.5V39H37.0781V11.45H42.7781V15.45ZM59.1676 7.8C58.1342 7.8 57.2676 7.45 56.5676 6.75C55.8676 6.05 55.5176 5.18333 55.5176 4.15C55.5176 3.11666 55.8676 2.25 56.5676 1.55C57.2676 0.849998 58.1342 0.499998 59.1676 0.499998C60.1676 0.499998 61.0176 0.849998 61.7176 1.55C62.4176 2.25 62.7676 3.11666 62.7676 4.15C62.7676 5.18333 62.4176 6.05 61.7176 6.75C61.0176 7.45 60.1676 7.8 59.1676 7.8ZM61.9676 11.45V39H56.2676V11.45H61.9676ZM80.1012 33.9L87.9012 11.45H93.9512L83.4512 39H76.6512L66.2012 11.45H72.3012L80.1012 33.9ZM110.21 39.45C107.61 39.45 105.26 38.8667 103.16 37.7C101.06 36.5 99.4098 34.8333 98.2098 32.7C97.0098 30.5333 96.4098 28.0333 96.4098 25.2C96.4098 22.4 97.0264 19.9167 98.2598 17.75C99.4931 15.5833 101.176 13.9167 103.31 12.75C105.443 11.5833 107.826 11 110.46 11C113.093 11 115.476 11.5833 117.61 12.75C119.743 13.9167 121.426 15.5833 122.66 17.75C123.893 19.9167 124.51 22.4 124.51 25.2C124.51 28 123.876 30.4833 122.61 32.65C121.343 34.8167 119.61 36.5 117.41 37.7C115.243 38.8667 112.843 39.45 110.21 39.45ZM110.21 34.5C111.676 34.5 113.043 34.15 114.31 33.45C115.61 32.75 116.66 31.7 117.46 30.3C118.26 28.9 118.66 27.2 118.66 25.2C118.66 23.2 118.276 21.5167 117.51 20.15C116.743 18.75 115.726 17.7 114.46 17C113.193 16.3 111.826 15.95 110.36 15.95C108.893 15.95 107.526 16.3 106.26 17C105.026 17.7 104.043 18.75 103.31 20.15C102.576 21.5167 102.21 23.2 102.21 25.2C102.21 28.1667 102.96 30.4667 104.46 32.1C105.993 33.7 107.91 34.5 110.21 34.5Z" fill="#4A4A4A"/>
</svg>
