<svg width="148" height="47" viewBox="0 0 148 47" fill="none" xmlns="http://www.w3.org/2000/svg">
<path d="M16.175 4.582C20.541 4.582 24.3563 5.44733 27.621 7.178C30.8857 8.90866 33.403 11.3473 35.173 14.494C36.9823 17.6013 37.887 21.2003 37.887 25.291C37.887 29.3423 36.9823 32.9413 35.173 36.088C33.403 39.2347 30.866 41.6733 27.562 43.404C24.2973 45.1347 20.5017 46 16.175 46H0.658V4.582H16.175ZM15.526 37.268C19.3413 37.268 22.311 36.2257 24.435 34.141C26.559 32.0563 27.621 29.1063 27.621 25.291C27.621 21.4757 26.559 18.506 24.435 16.382C22.311 14.258 19.3413 13.196 15.526 13.196H10.747V37.268H15.526Z" fill="#809187"/>
<path d="M51.0182 18.211C52.0015 16.559 53.2995 15.2807 54.9122 14.376C56.5642 13.432 58.5112 12.96 60.7532 12.96V19.922H59.0422C56.4069 19.922 54.4009 20.5907 53.0242 21.928C51.6869 23.2653 51.0182 25.586 51.0182 28.89V46H44.2922V13.491H51.0182V18.211ZM70.3577 9.184C69.1384 9.184 68.1157 8.771 67.2897 7.945C66.4637 7.119 66.0507 6.09633 66.0507 4.877C66.0507 3.65766 66.4637 2.635 67.2897 1.809C68.1157 0.982998 69.1384 0.569998 70.3577 0.569998C71.5377 0.569998 72.5407 0.982998 73.3667 1.809C74.1927 2.635 74.6057 3.65766 74.6057 4.877C74.6057 6.09633 74.1927 7.119 73.3667 7.945C72.5407 8.771 71.5377 9.184 70.3577 9.184ZM73.6617 13.491V46H66.9357V13.491H73.6617ZM95.0594 39.982L104.263 13.491H111.402L99.0124 46H90.9884L78.6574 13.491H85.8554L95.0594 39.982ZM130.588 46.531C127.52 46.531 124.747 45.8427 122.269 44.466C119.791 43.05 117.844 41.0833 116.428 38.566C115.012 36.0093 114.304 33.0593 114.304 29.716C114.304 26.412 115.031 23.4817 116.487 20.925C117.942 18.3683 119.928 16.4017 122.446 15.025C124.963 13.6483 127.775 12.96 130.883 12.96C133.99 12.96 136.802 13.6483 139.32 15.025C141.837 16.4017 143.823 18.3683 145.279 20.925C146.734 23.4817 147.462 26.412 147.462 29.716C147.462 33.02 146.714 35.9503 145.22 38.507C143.725 41.0637 141.68 43.05 139.084 44.466C136.527 45.8427 133.695 46.531 130.588 46.531ZM130.588 40.69C132.318 40.69 133.931 40.277 135.426 39.451C136.96 38.625 138.199 37.386 139.143 35.734C140.087 34.082 140.559 32.076 140.559 29.716C140.559 27.356 140.106 25.3697 139.202 23.757C138.297 22.105 137.097 20.866 135.603 20.04C134.108 19.214 132.495 18.801 130.765 18.801C129.034 18.801 127.421 19.214 125.927 20.04C124.471 20.866 123.311 22.105 122.446 23.757C121.58 25.3697 121.148 27.356 121.148 29.716C121.148 33.2167 122.033 35.9307 123.803 37.858C125.612 39.746 127.874 40.69 130.588 40.69Z" fill="white"/>
</svg>
