<svg width="208" height="226" viewBox="0 0 208 226" fill="none" xmlns="http://www.w3.org/2000/svg">
<path d="M21.6484 189.916L19.6702 182.138C16.1628 180.656 12.5743 179.372 8.92188 178.293L8.6722 181.908L7.65957 177.925C3.12992 176.634 0.0483398 176.066 0.0483398 176.066C0.0483398 176.066 4.20979 191.847 12.941 203.912L23.1136 205.694L15.2108 206.83C16.3091 208.148 17.4894 209.395 18.7447 210.565C31.4447 222.318 45.5903 227.71 50.3395 222.609C55.0887 217.507 48.6432 203.844 35.9433 192.092C32.0062 188.449 27.0604 185.525 22.1095 183.223L21.6484 189.916Z" fill="#F2F2F2"/>
<path d="M40.4612 181.467L42.8006 173.789C40.5667 170.713 38.1605 167.764 35.5935 164.958L33.5055 167.924L34.7033 163.993C31.4945 160.555 29.1511 158.48 29.1511 158.48C29.1511 158.48 24.5328 174.135 25.7511 188.962L33.5357 195.73L26.1802 192.629C26.4375 194.324 26.8015 196 27.27 197.649C32.0484 214.255 41.3619 226.161 48.0721 224.242C54.7823 222.322 56.3486 207.304 51.5702 190.698C50.0889 185.55 47.3707 180.498 44.3259 175.976L40.4612 181.467Z" fill="#F2F2F2"/>
<path d="M156.782 53.911H155.548V20.2076C155.548 17.6458 155.042 15.1092 154.058 12.7424C153.075 10.3757 151.634 8.2252 149.817 6.41378C148 4.60235 145.843 3.16544 143.469 2.1851C141.096 1.20477 138.551 0.700195 135.982 0.700195H64.3606C59.1715 0.700195 54.1948 2.75543 50.5255 6.41378C46.8562 10.0721 44.7949 15.0339 44.7949 20.2076V205.11C44.7949 207.672 45.3009 210.209 46.2842 212.575C47.2675 214.942 48.7087 217.093 50.5255 218.904C52.3424 220.715 54.4993 222.152 56.8731 223.133C59.247 224.113 61.7912 224.618 64.3606 224.618H135.982C141.171 224.618 146.148 222.562 149.817 218.904C153.486 215.246 155.547 210.284 155.547 205.11V77.9017H156.781L156.782 53.911Z" fill="#E6E6E6"/>
<path d="M136.771 5.77344H127.423C127.853 6.8244 128.017 7.96467 127.901 9.09376C127.785 10.2229 127.392 11.3061 126.757 12.2482C126.122 13.1902 125.264 13.962 124.259 14.4957C123.255 15.0293 122.134 15.3084 120.995 15.3084H79.9642C78.8258 15.3083 77.7049 15.0292 76.7002 14.4955C75.6956 13.9618 74.838 13.1899 74.203 12.2479C73.568 11.3059 73.1751 10.2227 73.059 9.09362C72.9428 7.96457 73.1069 6.82436 73.5368 5.77344H64.805C60.9298 5.77344 57.2133 7.30827 54.4731 10.0403C51.7329 12.7723 50.1935 16.4777 50.1935 20.3414V204.976C50.1935 208.839 51.7329 212.545 54.4731 215.277C57.2133 218.009 60.9298 219.543 64.805 219.543H136.771C140.647 219.543 144.363 218.009 147.103 215.277C149.843 212.545 151.383 208.839 151.383 204.976V20.3411C151.383 16.4775 149.843 12.7721 147.103 10.0402C144.363 7.30823 140.646 5.77344 136.771 5.77344Z" fill="white"/>
<path d="M91.6177 79.3222C91.6175 78.0316 91.9583 76.7637 92.6057 75.6461C93.2531 74.5286 94.1844 73.6008 95.3058 72.9561C94.1849 72.3107 92.9135 71.9708 91.6191 71.9707C90.3248 71.9706 89.0533 72.3101 87.9323 72.9553C86.8113 73.6004 85.8804 74.5284 85.2332 75.646C84.586 76.7635 84.2453 78.0312 84.2453 79.3217C84.2453 80.6122 84.586 81.8799 85.2332 82.9974C85.8804 84.115 86.8113 85.043 87.9323 85.6881C89.0533 86.3333 90.3248 86.6729 91.6191 86.6727C92.9135 86.6726 94.1849 86.3327 95.3058 85.6873C94.1845 85.0428 93.2532 84.1151 92.6058 82.9977C91.9584 81.8803 91.6176 80.6126 91.6177 79.3222Z" fill="#CCCCCC"/>
<path d="M100.887 79.3222C100.886 78.0316 101.227 76.7637 101.875 75.6461C102.522 74.5286 103.453 73.6008 104.575 72.9561C103.454 72.3107 102.182 71.9708 100.888 71.9707C99.5937 71.9706 98.3222 72.3101 97.2012 72.9553C96.0802 73.6004 95.1494 74.5284 94.5021 75.646C93.8549 76.7635 93.5142 78.0312 93.5142 79.3217C93.5142 80.6122 93.8549 81.8799 94.5021 82.9974C95.1494 84.115 96.0802 85.043 97.2012 85.6881C98.3222 86.3333 99.5937 86.6729 100.888 86.6727C102.182 86.6726 103.454 86.3327 104.575 85.6873C103.453 85.0428 102.522 84.1151 101.875 82.9977C101.227 81.8803 100.887 80.6126 100.887 79.3222Z" fill="#CCCCCC"/>
<path d="M109.945 86.6737C114.017 86.6737 117.318 83.3825 117.318 79.3227C117.318 75.2628 114.017 71.9717 109.945 71.9717C105.873 71.9717 102.572 75.2628 102.572 79.3227C102.572 83.3825 105.873 86.6737 109.945 86.6737Z" fill="#263435"/>
<path d="M122.267 102.283H79.2957C78.8866 102.282 78.4944 102.12 78.2051 101.831C77.9158 101.543 77.7531 101.152 77.7526 100.744V57.9008C77.7531 57.4929 77.9158 57.1018 78.2051 56.8134C78.4944 56.525 78.8866 56.3628 79.2957 56.3623H122.267C122.676 56.3628 123.068 56.525 123.358 56.8134C123.647 57.1018 123.81 57.4929 123.81 57.9008V100.744C123.81 101.152 123.647 101.543 123.358 101.831C123.068 102.12 122.676 102.282 122.267 102.283ZM79.2957 56.978C79.0502 56.9783 78.8149 57.0756 78.6413 57.2487C78.4678 57.4217 78.3701 57.6563 78.3699 57.9011V100.744C78.3701 100.989 78.4678 101.224 78.6413 101.397C78.8149 101.57 79.0502 101.667 79.2957 101.667H122.267C122.513 101.667 122.748 101.57 122.922 101.397C123.095 101.224 123.193 100.989 123.193 100.744V57.9011C123.193 57.6563 123.095 57.4217 122.922 57.2487C122.748 57.0756 122.513 56.9783 122.267 56.978H79.2957Z" fill="#CCCCCC"/>
<path d="M131.862 135.124H65.9567V135.739H131.862V135.124Z" fill="#CCCCCC"/>
<path d="M68.038 131.281C69.1875 131.281 70.1194 130.352 70.1194 129.206C70.1194 128.06 69.1875 127.131 68.038 127.131C66.8886 127.131 65.9567 128.06 65.9567 129.206C65.9567 130.352 66.8886 131.281 68.038 131.281Z" fill="#263435"/>
<path d="M131.862 155.873H65.9567V156.488H131.862V155.873Z" fill="#CCCCCC"/>
<path d="M68.038 152.031C69.1875 152.031 70.1194 151.102 70.1194 149.956C70.1194 148.81 69.1875 147.881 68.038 147.881C66.8886 147.881 65.9567 148.81 65.9567 149.956C65.9567 151.102 66.8886 152.031 68.038 152.031Z" fill="#263435"/>
<path d="M130.656 179.503H109.828C109.468 179.502 109.123 179.36 108.869 179.106C108.615 178.852 108.471 178.508 108.471 178.15V170.871C108.471 170.513 108.615 170.169 108.869 169.915C109.123 169.662 109.468 169.519 109.828 169.519H130.656C131.016 169.519 131.361 169.662 131.615 169.915C131.869 170.169 132.013 170.513 132.013 170.871V178.15C132.013 178.508 131.869 178.852 131.615 179.106C131.361 179.36 131.016 179.502 130.656 179.503Z" fill="#263435"/>
<path d="M74.8272 131.281C75.9767 131.281 76.9086 130.352 76.9086 129.206C76.9086 128.06 75.9767 127.131 74.8272 127.131C73.6778 127.131 72.7459 128.06 72.7459 129.206C72.7459 130.352 73.6778 131.281 74.8272 131.281Z" fill="#263435"/>
<path d="M81.6165 131.281C82.766 131.281 83.6978 130.352 83.6978 129.206C83.6978 128.06 82.766 127.131 81.6165 127.131C80.467 127.131 79.5352 128.06 79.5352 129.206C79.5352 130.352 80.467 131.281 81.6165 131.281Z" fill="#263435"/>
<path d="M74.8272 152.031C75.9767 152.031 76.9086 151.102 76.9086 149.956C76.9086 148.81 75.9767 147.881 74.8272 147.881C73.6778 147.881 72.7459 148.81 72.7459 149.956C72.7459 151.102 73.6778 152.031 74.8272 152.031Z" fill="#263435"/>
<path d="M81.6165 152.031C82.766 152.031 83.6978 151.102 83.6978 149.956C83.6978 148.81 82.766 147.881 81.6165 147.881C80.467 147.881 79.5352 148.81 79.5352 149.956C79.5352 151.102 80.467 152.031 81.6165 152.031Z" fill="#263435"/>
<path d="M170.329 147.859C170.477 147.926 170.619 148.005 170.755 148.096L184.28 142.34L184.763 138.788L190.167 138.755L189.848 146.902L171.996 151.609C171.958 151.733 171.913 151.854 171.861 151.972C171.603 152.521 171.188 152.982 170.668 153.297C170.148 153.612 169.546 153.766 168.939 153.741C168.331 153.716 167.744 153.512 167.252 153.156C166.76 152.799 166.385 152.306 166.173 151.738C165.961 151.169 165.923 150.551 166.062 149.961C166.202 149.37 166.513 148.834 166.957 148.42C167.401 148.006 167.958 147.731 168.558 147.631C169.158 147.532 169.774 147.611 170.329 147.859Z" fill="#FFB8B8"/>
<path d="M192.133 221.688H188.435L186.677 207.471L192.133 207.471L192.133 221.688Z" fill="#FFB8B8"/>
<path d="M185.795 220.635H192.925V225.111H181.305C181.305 223.924 181.778 222.785 182.62 221.946C183.462 221.106 184.604 220.635 185.795 220.635Z" fill="#2F2E41"/>
<path d="M206.511 220.646L202.831 221.007L199.683 207.03L205.113 206.497L206.511 220.646Z" fill="#FFB8B8"/>
<path d="M200.1 220.218L207.196 219.521L207.636 223.975L196.072 225.11C196.015 224.526 196.073 223.935 196.244 223.373C196.415 222.81 196.696 222.287 197.07 221.832C197.444 221.378 197.904 221.002 198.424 220.724C198.944 220.447 199.513 220.275 200.1 220.218Z" fill="#2F2E41"/>
<path d="M193.162 123.708C197.252 123.708 200.568 120.402 200.568 116.324C200.568 112.246 197.252 108.939 193.162 108.939C189.071 108.939 185.755 112.246 185.755 116.324C185.755 120.402 189.071 123.708 193.162 123.708Z" fill="#FFB8B8"/>
<path d="M187.609 218.812C187.292 218.813 186.984 218.702 186.74 218.498C186.497 218.295 186.333 218.012 186.278 217.7C184.364 207.11 178.109 172.48 177.96 171.521C177.957 171.499 177.955 171.477 177.955 171.455V168.873C177.955 168.779 177.984 168.687 178.039 168.61L178.866 167.457C178.905 167.401 178.956 167.355 179.016 167.323C179.076 167.29 179.142 167.272 179.211 167.269C183.921 167.048 199.35 166.403 200.095 167.331C200.844 168.265 200.579 171.092 200.518 171.649L200.521 171.707L207.453 215.902C207.507 216.254 207.42 216.614 207.21 216.903C207.001 217.192 206.685 217.387 206.333 217.446L202.003 218.157C201.681 218.208 201.351 218.143 201.072 217.972C200.794 217.802 200.587 217.537 200.488 217.227C199.149 212.961 194.659 198.611 193.103 193.058C193.093 193.023 193.071 192.993 193.04 192.973C193.01 192.953 192.973 192.944 192.937 192.949C192.901 192.955 192.867 192.973 192.844 193C192.82 193.028 192.807 193.063 192.807 193.1C192.885 198.393 193.073 211.898 193.138 216.562L193.145 217.065C193.148 217.405 193.022 217.733 192.794 217.986C192.565 218.238 192.25 218.396 191.911 218.428L187.736 218.807C187.694 218.81 187.651 218.812 187.609 218.812Z" fill="#2F2E41"/>
<path d="M188.461 126.612C187.169 127.378 186.395 128.786 185.951 130.218C185.13 132.87 184.635 135.612 184.478 138.384L184.009 146.682L178.203 168.681C183.235 172.926 186.138 171.961 192.913 168.489C199.687 165.016 200.461 169.647 200.461 169.647L201.816 150.928L203.752 130.474C203.317 129.952 202.825 129.481 202.286 129.069C200.497 127.682 198.415 126.718 196.198 126.249C193.981 125.781 191.686 125.82 189.487 126.364L188.461 126.612Z" fill="#263435"/>
<path d="M186.575 152.302C186.731 152.361 186.883 152.432 187.028 152.514L200.401 145.84L200.623 142.225L206.14 141.846L206.435 150.087L188.563 155.98C188.417 156.604 188.084 157.169 187.609 157.6C187.133 158.031 186.537 158.307 185.9 158.391C185.263 158.476 184.615 158.366 184.042 158.074C183.47 157.783 183 157.325 182.695 156.761C182.39 156.197 182.264 155.553 182.335 154.917C182.406 154.28 182.669 153.679 183.09 153.195C183.512 152.711 184.071 152.367 184.693 152.207C185.316 152.048 185.972 152.081 186.575 152.302Z" fill="#FFB8B8"/>
<path d="M203.655 130.568C206.945 131.726 207.525 144.27 207.525 144.27C203.654 142.147 199.008 145.621 199.008 145.621C199.008 145.621 198.041 142.34 196.879 138.095C196.529 136.901 196.487 135.638 196.757 134.423C197.028 133.208 197.603 132.082 198.428 131.148C198.428 131.148 200.364 129.41 203.655 130.568Z" fill="#263435"/>
<path d="M199.803 118.277C198.88 117.541 197.621 118.879 197.621 118.879L196.882 112.254C196.882 112.254 192.268 112.805 189.315 112.07C186.362 111.335 185.901 114.739 185.901 114.739C185.749 113.364 185.718 111.979 185.809 110.598C185.993 108.942 188.393 107.286 192.638 106.182C196.882 105.078 199.097 109.862 199.097 109.862C202.05 111.334 200.725 119.013 199.803 118.277Z" fill="#2F2E41"/>
<path d="M79.9774 27.5043C80.6434 27.5043 81.2254 27.6363 81.7234 27.9003C82.2214 28.1643 82.6054 28.5363 82.8754 29.0163C83.1514 29.4903 83.2894 30.0393 83.2894 30.6633C83.2894 31.2813 83.1514 31.8303 82.8754 32.3103C82.6054 32.7903 82.2184 33.1623 81.7144 33.4263C81.2164 33.6903 80.6374 33.8223 79.9774 33.8223H77.6104V27.5043H79.9774ZM79.8784 32.4903C80.4604 32.4903 80.9134 32.3313 81.2374 32.0133C81.5614 31.6953 81.7234 31.2453 81.7234 30.6633C81.7234 30.0813 81.5614 29.6283 81.2374 29.3043C80.9134 28.9803 80.4604 28.8183 79.8784 28.8183H79.1494V32.4903H79.8784Z" fill="#263435"/>
<path d="M85.2924 29.5833C85.4424 29.3313 85.6404 29.1363 85.8864 28.9983C86.1384 28.8543 86.4354 28.7823 86.7774 28.7823V29.8443H86.5164C86.1144 29.8443 85.8084 29.9463 85.5984 30.1503C85.3944 30.3543 85.2924 30.7083 85.2924 31.2123V33.8223H84.2664V28.8633H85.2924V29.5833ZM88.2425 28.2063C88.0565 28.2063 87.9005 28.1433 87.7745 28.0173C87.6485 27.8913 87.5855 27.7353 87.5855 27.5493C87.5855 27.3633 87.6485 27.2073 87.7745 27.0813C87.9005 26.9553 88.0565 26.8923 88.2425 26.8923C88.4225 26.8923 88.5755 26.9553 88.7015 27.0813C88.8275 27.2073 88.8905 27.3633 88.8905 27.5493C88.8905 27.7353 88.8275 27.8913 88.7015 28.0173C88.5755 28.1433 88.4225 28.2063 88.2425 28.2063ZM88.7465 28.8633V33.8223H87.7205V28.8633H88.7465ZM92.0106 32.9043L93.4146 28.8633H94.5036L92.6136 33.8223H91.3896L89.5086 28.8633H90.6066L92.0106 32.9043ZM97.4301 33.9033C96.9621 33.9033 96.5391 33.7983 96.1611 33.5883C95.7831 33.3723 95.4861 33.0723 95.2701 32.6883C95.0541 32.2983 94.9461 31.8483 94.9461 31.3383C94.9461 30.8343 95.0571 30.3873 95.2791 29.9973C95.5011 29.6073 95.8041 29.3073 96.1881 29.0973C96.5721 28.8873 97.0011 28.7823 97.4751 28.7823C97.9491 28.7823 98.3781 28.8873 98.7621 29.0973C99.1461 29.3073 99.4491 29.6073 99.6711 29.9973C99.8931 30.3873 100.004 30.8343 100.004 31.3383C100.004 31.8423 99.8901 32.2893 99.6621 32.6793C99.4341 33.0693 99.1221 33.3723 98.7261 33.5883C98.3361 33.7983 97.9041 33.9033 97.4301 33.9033ZM97.4301 33.0123C97.6941 33.0123 97.9401 32.9493 98.1681 32.8233C98.4021 32.6973 98.5911 32.5083 98.7351 32.2563C98.8791 32.0043 98.9511 31.6983 98.9511 31.3383C98.9511 30.9783 98.8821 30.6753 98.7441 30.4293C98.6061 30.1773 98.4231 29.9883 98.1951 29.8623C97.9671 29.7363 97.7211 29.6733 97.4571 29.6733C97.1931 29.6733 96.9471 29.7363 96.7191 29.8623C96.4971 29.9883 96.3201 30.1773 96.1881 30.4293C96.0561 30.6753 95.9901 30.9783 95.9901 31.3383C95.9901 31.8723 96.1251 32.2863 96.3951 32.5803C96.6711 32.8683 97.0161 33.0123 97.4301 33.0123Z" fill="#535050"/>
<path d="M109.148 32.6253H106.646L106.232 33.8223H104.909L107.168 27.5313H108.635L110.894 33.8223H109.562L109.148 32.6253ZM108.806 31.6173L107.897 28.9893L106.988 31.6173H108.806ZM112.998 29.5563C113.16 29.3283 113.382 29.1393 113.664 28.9893C113.952 28.8333 114.279 28.7553 114.645 28.7553C115.071 28.7553 115.455 28.8603 115.797 29.0703C116.145 29.2803 116.418 29.5803 116.616 29.9703C116.82 30.3543 116.922 30.8013 116.922 31.3113C116.922 31.8213 116.82 32.2743 116.616 32.6703C116.418 33.0603 116.145 33.3633 115.797 33.5793C115.455 33.7953 115.071 33.9033 114.645 33.9033C114.279 33.9033 113.955 33.8283 113.673 33.6783C113.397 33.5283 113.172 33.3393 112.998 33.1113V36.1983H111.738V28.8363H112.998V29.5563ZM115.635 31.3113C115.635 31.0113 115.572 30.7533 115.446 30.5373C115.326 30.3153 115.164 30.1473 114.96 30.0333C114.762 29.9193 114.546 29.8623 114.312 29.8623C114.084 29.8623 113.868 29.9223 113.664 30.0423C113.466 30.1563 113.304 30.3243 113.178 30.5463C113.058 30.7683 112.998 31.0293 112.998 31.3293C112.998 31.6293 113.058 31.8903 113.178 32.1123C113.304 32.3343 113.466 32.5053 113.664 32.6253C113.868 32.7393 114.084 32.7963 114.312 32.7963C114.546 32.7963 114.762 32.7363 114.96 32.6163C115.164 32.4963 115.326 32.3253 115.446 32.1033C115.572 31.8813 115.635 31.6173 115.635 31.3113ZM119.098 29.5563C119.26 29.3283 119.482 29.1393 119.764 28.9893C120.052 28.8333 120.379 28.7553 120.745 28.7553C121.171 28.7553 121.555 28.8603 121.897 29.0703C122.245 29.2803 122.518 29.5803 122.716 29.9703C122.92 30.3543 123.022 30.8013 123.022 31.3113C123.022 31.8213 122.92 32.2743 122.716 32.6703C122.518 33.0603 122.245 33.3633 121.897 33.5793C121.555 33.7953 121.171 33.9033 120.745 33.9033C120.379 33.9033 120.055 33.8283 119.773 33.6783C119.497 33.5283 119.272 33.3393 119.098 33.1113V36.1983H117.838V28.8363H119.098V29.5563ZM121.735 31.3113C121.735 31.0113 121.672 30.7533 121.546 30.5373C121.426 30.3153 121.264 30.1473 121.06 30.0333C120.862 29.9193 120.646 29.8623 120.412 29.8623C120.184 29.8623 119.968 29.9223 119.764 30.0423C119.566 30.1563 119.404 30.3243 119.278 30.5463C119.158 30.7683 119.098 31.0293 119.098 31.3293C119.098 31.6293 119.158 31.8903 119.278 32.1123C119.404 32.3343 119.566 32.5053 119.764 32.6253C119.968 32.7393 120.184 32.7963 120.412 32.7963C120.646 32.7963 120.862 32.7363 121.06 32.6163C121.264 32.4963 121.426 32.3253 121.546 32.1033C121.672 31.8813 121.735 31.6173 121.735 31.3113Z" fill="#263435"/>
</svg>
