<svg width="375" height="812" viewBox="0 0 375 812" fill="none" xmlns="http://www.w3.org/2000/svg">
<g clip-path="url(#clip0_144_2614)">
<rect x="-28" y="-24" width="430" height="846" rx="40" fill="#263435"/>
<circle cx="15" cy="18" r="65" fill="#8888EA" fill-opacity="0.12"/>
<circle cx="240" cy="243" r="65" fill="#8888EA" fill-opacity="0.12"/>
<circle cx="178" cy="15" r="10" fill="#8888EA" fill-opacity="0.12"/>
<circle cx="15" cy="350" r="15" stroke="#FCA82F" stroke-opacity="0.24" stroke-width="10"/>
<circle cx="217" cy="370" r="15" stroke="#FCA82F" stroke-opacity="0.24" stroke-width="10"/>
<path d="M142.686 83.9087L178.866 98.3926L148.232 122.483L142.686 83.9087Z" fill="#F2C94C" fill-opacity="0.34"/>
<path d="M155.672 419.152L151.28 436H146.312L143.624 424.912L140.84 436H135.872L131.6 419.152H135.992L138.416 431.416L141.416 419.152H145.928L148.808 431.416L151.256 419.152H155.672ZM170.354 429.088C170.354 429.472 170.33 429.872 170.282 430.288H160.994C161.058 431.12 161.322 431.76 161.786 432.208C162.266 432.64 162.85 432.856 163.538 432.856C164.562 432.856 165.274 432.424 165.674 431.56H170.042C169.818 432.44 169.41 433.232 168.818 433.936C168.242 434.64 167.514 435.192 166.634 435.592C165.754 435.992 164.77 436.192 163.682 436.192C162.37 436.192 161.202 435.912 160.178 435.352C159.154 434.792 158.354 433.992 157.778 432.952C157.202 431.912 156.914 430.696 156.914 429.304C156.914 427.912 157.194 426.696 157.754 425.656C158.33 424.616 159.13 423.816 160.154 423.256C161.178 422.696 162.354 422.416 163.682 422.416C164.978 422.416 166.13 422.688 167.138 423.232C168.146 423.776 168.93 424.552 169.49 425.56C170.066 426.568 170.354 427.744 170.354 429.088ZM166.154 428.008C166.154 427.304 165.914 426.744 165.434 426.328C164.954 425.912 164.354 425.704 163.634 425.704C162.946 425.704 162.362 425.904 161.882 426.304C161.418 426.704 161.13 427.272 161.018 428.008H166.154ZM176.623 418.24V436H172.519V418.24H176.623ZM178.781 429.304C178.781 427.912 179.061 426.696 179.621 425.656C180.197 424.616 180.989 423.816 181.997 423.256C183.021 422.696 184.189 422.416 185.501 422.416C187.181 422.416 188.581 422.856 189.701 423.736C190.837 424.616 191.581 425.856 191.933 427.456H187.565C187.197 426.432 186.485 425.92 185.429 425.92C184.677 425.92 184.077 426.216 183.629 426.808C183.181 427.384 182.957 428.216 182.957 429.304C182.957 430.392 183.181 431.232 183.629 431.824C184.077 432.4 184.677 432.688 185.429 432.688C186.485 432.688 187.197 432.176 187.565 431.152H191.933C191.581 432.72 190.837 433.952 189.701 434.848C188.565 435.744 187.165 436.192 185.501 436.192C184.189 436.192 183.021 435.912 181.997 435.352C180.989 434.792 180.197 433.992 179.621 432.952C179.061 431.912 178.781 430.696 178.781 429.304ZM200.225 436.192C198.913 436.192 197.729 435.912 196.673 435.352C195.633 434.792 194.809 433.992 194.201 432.952C193.609 431.912 193.313 430.696 193.313 429.304C193.313 427.928 193.617 426.72 194.225 425.68C194.833 424.624 195.665 423.816 196.721 423.256C197.777 422.696 198.961 422.416 200.273 422.416C201.585 422.416 202.769 422.696 203.825 423.256C204.881 423.816 205.713 424.624 206.321 425.68C206.929 426.72 207.233 427.928 207.233 429.304C207.233 430.68 206.921 431.896 206.297 432.952C205.689 433.992 204.849 434.792 203.777 435.352C202.721 435.912 201.537 436.192 200.225 436.192ZM200.225 432.64C201.009 432.64 201.673 432.352 202.217 431.776C202.777 431.2 203.057 430.376 203.057 429.304C203.057 428.232 202.785 427.408 202.241 426.832C201.713 426.256 201.057 425.968 200.273 425.968C199.473 425.968 198.809 426.256 198.281 426.832C197.753 427.392 197.489 428.216 197.489 429.304C197.489 430.376 197.745 431.2 198.257 431.776C198.785 432.352 199.441 432.64 200.225 432.64ZM226.498 422.464C228.162 422.464 229.482 422.968 230.458 423.976C231.45 424.984 231.946 426.384 231.946 428.176V436H227.866V428.728C227.866 427.864 227.634 427.2 227.17 426.736C226.722 426.256 226.098 426.016 225.298 426.016C224.498 426.016 223.866 426.256 223.402 426.736C222.954 427.2 222.73 427.864 222.73 428.728V436H218.65V428.728C218.65 427.864 218.418 427.2 217.954 426.736C217.506 426.256 216.882 426.016 216.082 426.016C215.282 426.016 214.65 426.256 214.186 426.736C213.738 427.2 213.514 427.864 213.514 428.728V436H209.41V422.608H213.514V424.288C213.93 423.728 214.474 423.288 215.146 422.968C215.818 422.632 216.578 422.464 217.426 422.464C218.434 422.464 219.33 422.68 220.114 423.112C220.914 423.544 221.538 424.16 221.986 424.96C222.45 424.224 223.082 423.624 223.882 423.16C224.682 422.696 225.554 422.464 226.498 422.464ZM247.44 429.088C247.44 429.472 247.416 429.872 247.368 430.288H238.08C238.144 431.12 238.408 431.76 238.872 432.208C239.352 432.64 239.936 432.856 240.624 432.856C241.648 432.856 242.36 432.424 242.76 431.56H247.128C246.904 432.44 246.496 433.232 245.904 433.936C245.328 434.64 244.6 435.192 243.72 435.592C242.84 435.992 241.856 436.192 240.768 436.192C239.456 436.192 238.288 435.912 237.264 435.352C236.24 434.792 235.44 433.992 234.864 432.952C234.288 431.912 234 430.696 234 429.304C234 427.912 234.28 426.696 234.84 425.656C235.416 424.616 236.216 423.816 237.24 423.256C238.264 422.696 239.44 422.416 240.768 422.416C242.064 422.416 243.216 422.688 244.224 423.232C245.232 423.776 246.016 424.552 246.576 425.56C247.152 426.568 247.44 427.744 247.44 429.088ZM243.24 428.008C243.24 427.304 243 426.744 242.52 426.328C242.04 425.912 241.44 425.704 240.72 425.704C240.032 425.704 239.448 425.904 238.968 426.304C238.504 426.704 238.216 427.272 238.104 428.008H243.24Z" fill="#FFFEFC"/>
</g>
<defs>
<clipPath id="clip0_144_2614">
<rect x="-28" y="-24" width="430" height="846" rx="40" fill="white"/>
</clipPath>
</defs>
</svg>
